<svg width="24" height="24" viewBox="0 0 24 24" fill="none" xmlns="http://www.w3.org/2000/svg">
<path fill-rule="evenodd" clip-rule="evenodd" d="M16.3034 2.70734H7.6544C4.6394 2.70734 2.7504 4.80799 2.7504 7.7808V15.8025C2.7504 18.7753 4.6314 20.8759 7.6544 20.8759H16.3024C19.3264 20.8759 21.2074 18.7753 21.2074 15.8025V7.7808C21.2074 4.80799 19.3264 2.70734 16.3034 2.70734Z" stroke="#151515" stroke-width="1.5" stroke-linecap="round" stroke-linejoin="round"/>
<path fill-rule="evenodd" clip-rule="evenodd" d="M10.7033 8.64824C10.7033 9.65132 9.8763 10.4654 8.8573 10.4654C7.8393 10.4654 7.0123 9.65132 7.0123 8.64824C7.0123 7.64516 7.8393 6.83109 8.8573 6.83109C9.8763 6.83109 10.7033 7.64516 10.7033 8.64824Z" stroke="#151515" stroke-width="1.5" stroke-linecap="round" stroke-linejoin="round"/>
<path d="M21.2067 14.7169C20.2127 13.8654 19.3477 12.8407 18.2077 12.1644C17.0657 11.4882 15.8387 11.9055 15.0467 12.9145C14.2817 13.89 13.8037 15.2022 12.6487 15.8174C11.2257 16.5764 10.3897 15.3528 9.20269 14.8626C7.87769 14.3163 6.87169 15.2987 6.09769 16.2427C5.32269 17.1877 4.53769 18.1228 3.74969 19.058" stroke="#151515" stroke-width="1.5" stroke-linecap="round" stroke-linejoin="round"/>
</svg>
