<svg width="64" height="64" viewBox="0 0 64 64" fill="none" xmlns="http://www.w3.org/2000/svg">
<rect width="64" height="64" rx="8" fill="#D7D7D7" fill-opacity="0.4"/>
<path d="M40.4375 38.3125H27.1802L24.4575 40.6367L21.7348 38.3125H16V39.9062C16 41.9376 17.4032 43.5925 19.1384 43.625C19.2997 44.6291 19.6902 45.5362 20.2779 46.2461C21.1471 47.2959 22.4109 47.875 23.8359 47.875H32.6016C34.0266 47.875 35.2903 47.2959 36.1596 46.2447C36.7473 45.5348 37.1378 44.6277 37.2991 43.6237C38.2209 43.6071 39.0489 43.1323 39.6234 42.3865C40.1598 41.6717 40.446 40.8 40.4375 39.9062V38.3125Z" fill="#454545" fill-opacity="0.2"/>
<path d="M21.9102 36.1875L24.4555 38.0595L27.0234 36.1875H40.4375V35.6562C40.4368 35.0441 40.225 34.451 39.8379 33.9768C39.4508 33.5026 38.9121 33.1764 38.3125 33.0531C38.258 31.0815 37.4492 29.4313 35.9544 28.2719C34.5718 27.1934 32.7244 26.625 30.6094 26.625H25.8281C21.2979 26.625 18.2293 29.1996 18.125 33.0531C17.5254 33.1764 16.9867 33.5026 16.5996 33.9768C16.2125 34.451 16.0007 35.0441 16 35.6562V36.1875H21.9102Z" fill="#454545" fill-opacity="0.2"/>
<path d="M45.6889 21.3125H40.7357L41.328 18.9445L44.2891 17.9258L43.625 16L39.5078 17.3281L38.5456 21.3125H28.75V23.4375H29.9951L30.1186 24.5H30.6094C33.1992 24.5 35.5009 25.2238 37.258 26.5931C38.2353 27.3462 39.0276 28.3126 39.5742 29.4187C39.9111 30.1049 40.1509 30.8346 40.2868 31.5869C41.2763 32.1961 42.0101 33.1449 42.3509 34.2558C42.6918 35.3668 42.6164 36.5638 42.1388 37.6232C42.4186 38.3519 42.5622 39.1257 42.5625 39.9062C42.5625 41.3898 42.0578 42.8036 41.1414 43.8873C40.5743 44.5629 39.8479 45.0867 39.0277 45.4113C38.7482 46.2078 38.3318 46.9494 37.7972 47.6027C37.7188 47.697 37.6385 47.7893 37.5561 47.8783H42.5625C43.625 47.8783 44.0898 47.3471 44.2227 46.351L46.6398 23.4408H47.875V21.3125H45.6889Z" fill="#454545" fill-opacity="0.2"/>
</svg>
