<svg width="22" height="24" viewBox="0 0 22 24" fill="none" xmlns="http://www.w3.org/2000/svg">
<path d="M6.6328 24C1.71558 21.2287 0.420981 18.6056 1.16114 15.023C1.70756 12.3775 3.49678 10.2252 3.66834 7.5849C4.43264 8.97578 4.752 9.97872 4.8374 11.4322C7.26826 8.4539 8.87462 4.33092 8.96974 0C8.96974 0 15.3012 3.7202 15.7167 9.3396C16.2618 8.18134 16.5361 6.34176 15.9911 5.14952C17.6262 6.34182 27.1969 16.9263 14.6947 24C17.0453 19.4232 15.3011 13.2478 11.2199 10.3956C11.4925 11.622 11.0146 16.1961 9.2091 18.2059C9.70938 14.8476 8.7331 13.4276 8.7331 13.4276C8.7331 13.4276 8.39802 15.3087 7.09794 17.2089C5.91074 18.9441 5.08814 20.7858 6.6328 24Z" fill="#FFC100"/>
</svg>
