<svg width="14" height="21" viewBox="0 0 14 21" fill="none" xmlns="http://www.w3.org/2000/svg">
<path d="M4 19.5465V20.5475H2V19.5465C1.46957 19.5465 0.960859 19.3355 0.585786 18.9601C0.210714 18.5846 0 18.0754 0 17.5444V2.52892C0 1.99794 0.210714 1.48871 0.585786 1.11325C0.960859 0.737786 1.46957 0.526855 2 0.526855H12C12.5304 0.526855 13.0391 0.737786 13.4142 1.11325C13.7893 1.48871 14 1.99794 14 2.52892V17.5444C14 18.0754 13.7893 18.5846 13.4142 18.9601C13.0391 19.3355 12.5304 19.5465 12 19.5465V20.5475H10V19.5465H4ZM2 2.52892V7.53408H12V2.52892H2ZM2 17.5444H12V9.53614H2V17.5444ZM3 10.5372H5V13.5403H3V10.5372ZM3 4.53098H5V6.53304H3V4.53098Z" fill="#151515"/>
</svg>
