<svg width="24" height="24" viewBox="0 0 24 24" fill="none" xmlns="http://www.w3.org/2000/svg">
<path fill-rule="evenodd" clip-rule="evenodd" d="M17.6378 6.99881V6.99881C17.2648 6.99881 16.9268 6.78717 16.7678 6.45642C16.4808 5.85792 16.1158 5.09306 15.8998 4.67667C15.5808 4.0575 15.0638 3.69722 14.3478 3.6923C14.3358 3.69131 9.66379 3.69131 9.65179 3.6923C8.93579 3.69722 8.41979 4.0575 8.09979 4.67667C7.88479 5.09306 7.51979 5.85792 7.23279 6.45642C7.07379 6.78717 6.73479 6.99881 6.36279 6.99881V6.99881C4.36679 6.99881 2.74979 8.59055 2.74979 10.5544V16.3976C2.74979 18.3605 4.36679 19.9532 6.36279 19.9532H17.6378C19.6328 19.9532 21.2498 18.3605 21.2498 16.3976V10.5544C21.2498 8.59055 19.6328 6.99881 17.6378 6.99881Z" stroke="#151515" stroke-width="1.5" stroke-linecap="round" stroke-linejoin="round"/>
<path fill-rule="evenodd" clip-rule="evenodd" d="M8.82139 13.1261C8.82039 14.8518 10.2514 16.2634 12.0014 16.2624C13.7484 16.2604 15.1754 14.8547 15.1784 13.133C15.1814 11.4045 13.7554 9.99584 12.0034 9.99387C10.2414 9.9919 8.80739 11.4242 8.82139 13.1261Z" stroke="#151515" stroke-width="1.5" stroke-linecap="round" stroke-linejoin="round"/>
<path d="M16.9025 10.8233C16.8059 10.8135 16.7105 10.7887 16.6036 10.7464C16.4847 10.6944 16.3818 10.6282 16.2823 10.5287C16.1035 10.3415 16 10.0968 16 9.84423C16 9.71009 16.0279 9.57714 16.0823 9.4567C16.1368 9.33469 16.2014 9.23175 16.3182 9.1198C16.407 9.04364 16.498 8.98235 16.6224 8.92841C16.9913 8.78452 17.4301 8.8705 17.7043 9.14033C17.7865 9.22004 17.8557 9.31623 17.8941 9.39735L17.9169 9.45486C17.9721 9.57714 18 9.71009 18 9.84423C18 10.1019 17.8978 10.3401 17.7081 10.5385C17.5442 10.701 17.3289 10.8009 17.0992 10.8233L17 10.8281L16.9025 10.8233Z" fill="#151515"/>
</svg>
