<svg width="64" height="64" viewBox="0 0 64 64" fill="none" xmlns="http://www.w3.org/2000/svg">
<rect width="64" height="64" rx="8" fill="#FFC100"/>
<path d="M40 34.5969H39C37.6 32.4188 36.6 29.5707 35.6 26.7225L37.4 28.2304C42.8 31.7487 47.6 31.0785 47.6 31.0785C47.6 31.0785 49 24.712 43.6 21.3613C39 18.3455 34.8 18.3455 33.6 18.5131C33.4 17.5079 33.4 16.6702 33.2 16L30.4 16.1675C30.4 21.5288 25 31.4136 23.2 34.5969C19.2 34.9319 16 37.7801 16 41.2984C16 44.9843 19.6 48 24 48C26.2 48 28 47.3298 29.4 46.1571C28.6 44.6492 28 42.9738 28 41.2984C28 39.623 28.6 37.9476 29.4 36.4398C28.6 35.7696 27.4 35.267 26.4 34.9319C27.8 32.4188 30.2 27.8953 31.8 23.5393C32.6 27.3927 34.2 31.9162 36.2 35.4346C33.8 36.6073 32 38.7853 32 41.2984C32 44.9843 35.6 48 40 48C44.4 48 48 44.9843 48 41.2984C48 37.6126 44.4 34.5969 40 34.5969ZM24 38.7853C22.4 38.7853 21 39.9581 21 41.2984H19C19 38.9529 21.2 37.1099 24 37.1099V38.7853ZM40 38.7853C38.4 38.7853 37 39.9581 37 41.2984H35C35 38.9529 37.2 37.1099 40 37.1099V38.7853Z" fill="white"/>
</svg>
