<svg width="64" height="64" viewBox="0 0 64 64" fill="none" xmlns="http://www.w3.org/2000/svg">
<rect width="64" height="64" rx="8" fill="#D7D7D7" fill-opacity="0.4"/>
<path d="M25.5974 41.6C23.8378 41.6 22.4142 43.04 22.4142 44.8C22.4142 46.56 23.8378 48 25.5974 48C27.3569 48 28.7965 46.56 28.7965 44.8C28.7965 43.04 27.3569 41.6 25.5974 41.6ZM17.5996 19.2H19.1991L24.9575 31.344L22.7981 35.248C21.6304 37.392 23.166 40 25.5974 40H43.1925C44.0723 40 44.7921 39.28 44.7921 38.4C44.7921 37.52 44.0723 36.8 43.1925 36.8H25.5974L27.3569 33.6H39.2736C40.4733 33.6 41.529 32.944 42.0728 31.952L47.7992 21.568C47.934 21.3255 48.0032 21.052 47.9999 20.7745C47.9966 20.497 47.9209 20.2252 47.7803 19.986C47.6397 19.7468 47.4391 19.5485 47.1984 19.4106C46.9576 19.2727 46.685 19.2001 46.4076 19.2H22.7341L21.6624 16.912C21.5339 16.6389 21.3302 16.4081 21.0753 16.2466C20.8203 16.085 20.5246 15.9995 20.2228 16H17.5996C16.7198 16 16 16.72 16 17.6C16 18.48 16.7198 19.2 17.5996 19.2ZM41.593 41.6C39.8334 41.6 38.4098 43.04 38.4098 44.8C38.4098 46.56 39.8334 48 41.593 48C43.3525 48 44.7921 46.56 44.7921 44.8C44.7921 43.04 43.3525 41.6 41.593 41.6Z" fill="#454545" fill-opacity="0.2"/>
</svg>
