<svg width="20" height="20" viewBox="0 0 20 20" fill="none" xmlns="http://www.w3.org/2000/svg">
<path d="M17.6688 4.67695C17.6198 4.52635 17.5245 4.39509 17.3966 4.30196C17.2686 4.20883 17.1145 4.1586 16.9562 4.15845H15.25V1.53074C15.25 1.11547 14.9148 0.779968 14.5 0.779968H5.5C5.08516 0.779968 4.75 1.11547 4.75 1.53074V4.15845H3.04375C2.88545 4.15824 2.73116 4.20833 2.60312 4.30151C2.47508 4.39469 2.37988 4.52615 2.33125 4.67695L0.625 9.93003V18.7985C0.625 19.2138 0.960156 19.5493 1.375 19.5493H18.625C19.0398 19.5493 19.375 19.2138 19.375 18.7985V9.93003L17.6688 4.67695ZM6.4375 2.46921H13.5625V4.15845H6.4375V2.46921ZM17.6875 17.8601H2.3125V10.1975L3.72578 5.84769H16.2742L17.6875 10.1975V17.8601ZM13.2812 11.5723H10.75V9.03848C10.75 8.93525 10.6656 8.85079 10.5625 8.85079H9.4375C9.33438 8.85079 9.25 8.93525 9.25 9.03848V11.5723H6.71875C6.61562 11.5723 6.53125 11.6568 6.53125 11.76V12.8862C6.53125 12.9894 6.61562 13.0739 6.71875 13.0739H9.25V15.6078C9.25 15.711 9.33438 15.7954 9.4375 15.7954H10.5625C10.6656 15.7954 10.75 15.711 10.75 15.6078V13.0739H13.2812C13.3844 13.0739 13.4688 12.9894 13.4688 12.8862V11.76C13.4688 11.6568 13.3844 11.5723 13.2812 11.5723Z" fill="#151515"/>
</svg>
