<svg width="14" height="21" viewBox="0 0 14 21" fill="none" xmlns="http://www.w3.org/2000/svg">
<path d="M2 0.715881C0.9 0.715881 0 1.61681 0 2.71795V17.7335C0 18.2645 0.210714 18.7737 0.585786 19.1491C0.960859 19.5246 1.46957 19.7355 2 19.7355V20.7366H4V19.7355H10V20.7366H12V19.7355C13.11 19.7355 14 18.8446 14 17.7335V2.71795C14 2.18697 13.7893 1.67773 13.4142 1.30227C13.0391 0.926813 12.5304 0.715881 12 0.715881H2ZM2 2.71795H12V5.72105H2V2.71795ZM2 7.72312H12V10.7262H2V7.72312ZM2 12.7283H6V17.7335H2V12.7283ZM8 12.7283H12V17.7335H8V12.7283ZM3 13.7293V16.7324H5V13.7293H3ZM9 13.7293V16.7324H11V13.7293H9Z" fill="#151515"/>
</svg>
