<svg width="64" height="64" viewBox="0 0 64 64" fill="none" xmlns="http://www.w3.org/2000/svg">
<rect width="64" height="64" rx="8" fill="#FFC100"/>
<path fill-rule="evenodd" clip-rule="evenodd" d="M39.0607 48H24.9393C22.2156 48 20 46.5022 20 44.6594V30.03C20 29.1878 21.1938 27.2288 23.1539 24.1028C24.2886 22.3021 25.832 19.8378 25.8481 19.3406C25.8481 19.0919 25.2861 18.6348 24.907 18.332C24.2671 17.8167 23.6056 17.2813 24.0197 16.6717C24.4177 16.0822 25.5093 16 26.6386 16H37.348C38.773 16.008 39.7948 16.1323 40.1793 16.7098C40.5772 17.3214 39.8916 17.8668 39.2866 18.35C38.9128 18.6448 38.3509 19.0899 38.3509 19.3386C38.3563 19.8398 39.862 22.3342 40.9724 24.1529C42.8573 27.2508 44 29.1938 44 30.0279V44.6574C44 46.5022 41.7791 48 39.0607 48ZM26.7085 18.0372C27.2973 18.5225 27.9265 19.2102 27.9265 19.92C27.9265 20.6158 27.0553 22.1518 25.3318 24.9449C24.1246 26.8919 22.4844 29.5547 22.4844 30.1583V44.2805C22.4844 45.3492 23.7616 46.2174 25.3211 46.2174H38.6655C40.2357 46.2174 41.5102 45.3492 41.5102 44.2805V30.1583C41.5102 29.5547 39.9319 26.912 38.773 24.985C37.149 22.256 36.0547 20.6118 36.0547 19.91C36.0547 19.1922 36.8855 18.5285 37.4824 18.0452C37.5254 18.0071 37.2781 17.9089 37.0334 17.9089H26.9343C26.7918 17.9089 26.6628 17.9971 26.7085 18.0372Z" fill="white"/>
<path fill-rule="evenodd" clip-rule="evenodd" d="M38.5929 42.2011C38.5929 43.6067 37.192 43.9797 35.4631 43.9797H28.5691C26.8402 43.9797 25.4421 43.6067 25.4421 42.2011V29.0595C25.4421 27.6539 27.136 32.1353 30.7793 30.0099C34.4253 27.8925 38.5929 27.6539 38.5929 29.0595V42.2011Z" fill="white"/>
</svg>
