<svg width="20" height="19" viewBox="0 0 20 19" fill="none" xmlns="http://www.w3.org/2000/svg">
<path d="M13.366 0.654968L16.577 6.22271H20V8.22478H18.833L18.076 17.3172C18.0552 17.5673 17.9413 17.8005 17.7568 17.9705C17.5723 18.1405 17.3308 18.235 17.08 18.2351H2.92C2.66925 18.235 2.4277 18.1405 2.24322 17.9705C2.05875 17.8005 1.94481 17.5673 1.924 17.3172L1.166 8.22478H0V6.22271H3.422L6.634 0.654968L8.366 1.656L5.732 6.22271H14.267L11.634 1.656L13.366 0.654968ZM16.826 8.22478H3.173L3.84 16.233H16.159L16.826 8.22478ZM11 10.2268V14.231H9V10.2268H11ZM7 10.2268V14.231H5V10.2268H7ZM15 10.2268V14.231H13V10.2268H15Z" fill="#151515"/>
</svg>
